<?xml version="1.0" encoding="UTF-8" standalone="no"?>
<!-- Created with Inkscape (http://www.inkscape.org/) -->

<svg
   xmlns:dc="http://purl.org/dc/elements/1.1/"
   xmlns:cc="http://creativecommons.org/ns#"
   xmlns:rdf="http://www.w3.org/1999/02/22-rdf-syntax-ns#"
   xmlns:svg="http://www.w3.org/2000/svg"
   xmlns="http://www.w3.org/2000/svg"
   xmlns:sodipodi="http://sodipodi.sourceforge.net/DTD/sodipodi-0.dtd"
   xmlns:inkscape="http://www.inkscape.org/namespaces/inkscape"
   width="48"
   height="48"
   viewBox="0 0 48.000002 47.999997"
   id="svg4281"
   version="1.1"
   inkscape:version="0.91 r13725"
   sodipodi:docname="shenkar2_logo.svg">
  <defs
     id="defs4283" />
  <sodipodi:namedview
     id="base"
     pagecolor="#ffffff"
     bordercolor="#666666"
     borderopacity="1.0"
     inkscape:pageopacity="0.0"
     inkscape:pageshadow="2"
     inkscape:zoom="2.8284271"
     inkscape:cx="92.891829"
     inkscape:cy="-53.783248"
     inkscape:document-units="px"
     inkscape:current-layer="layer1"
     showgrid="false"
     fit-margin-top="0"
     fit-margin-left="0"
     fit-margin-right="0"
     fit-margin-bottom="0"
     units="px"
     inkscape:window-width="1859"
     inkscape:window-height="1056"
     inkscape:window-x="61"
     inkscape:window-y="1048"
     inkscape:window-maximized="1" />
  <metadata
     id="metadata4286">
    <rdf:RDF>
      <cc:Work
         rdf:about="">
        <dc:format>image/svg+xml</dc:format>
        <dc:type
           rdf:resource="http://purl.org/dc/dcmitype/StillImage" />
        <dc:title></dc:title>
      </cc:Work>
    </rdf:RDF>
  </metadata>
  <g
     inkscape:label="Layer 1"
     inkscape:groupmode="layer"
     id="layer1"
     transform="translate(-1.2652811,6.5390708)">
    <g
       transform="matrix(0.05122348,0,0,0.05122348,3.9571152,-4.8866994)"
       id="g4252">
      <path
         inkscape:connector-curvature="0"
         id="path4179"
         d="m 458.89062,428.86719 -36.69921,0.004 c -20.1849,0.003 -39.61574,0.23248 -43.17774,0.50977 l -6.47461,0.50391 0,55.78125 86.35156,0 0,-56.79883 z m -272.40234,178.98437 0,42.31055 0,42.31055 35.91406,35.26172 c 19.7531,19.39359 50.19193,49.10268 67.64063,66.02148 17.44728,16.9174 31.92825,30.71801 32.18164,30.66602 0.2534,-0.0515 3.64521,-3.49425 7.53711,-7.65235 6.8398,-7.3077 64.83891,-68.21956 77.78711,-81.69336 l 6.36328,-6.62109 10.9082,10.28515 c 5.9996,5.657 28.39538,27.27145 49.76758,48.03125 21.3722,20.7598 39.0341,37.65663 39.25,37.54883 0.2158,-0.1079 7.10519,-7.26128 15.30859,-15.89648 20.9651,-22.0688 57.4674,-60.26792 88.07422,-92.16602 l 26.0586,-27.1582 0.0449,-39.44727 0.043,-39.44726 -11.1875,0 c -6.1526,-5e-4 -25.7582,-0.23393 -43.56836,-0.51953 l -32.38086,-0.51953 -0.0644,24.66015 -0.0645,24.66016 -4.08398,3.53125 c -2.2463,1.943 -12.29975,10.95058 -22.33985,20.01758 -10.0401,9.067 -18.54318,16.58763 -18.89648,16.71093 -0.3533,0.1232 -12.17223,-11.00471 -26.26563,-24.72851 l -25.625,-24.95313 0,-41.16992 -86.35156,0 0,40.85547 -6.86914,6.50781 c -35.8343,33.9554 -46.2021,43.65235 -46.6914,43.65235 -0.314,0.002 -7.71241,-6.44267 -16.44141,-14.32227 -8.7289,-7.8796 -18.9812,-17.11764 -22.7832,-20.52734 l -6.91407,-6.19922 0,-25.00391 0,-25.00586 -43.17578,0 -43.17578,0 z"
         style="fill:#000000" />
      <path
         inkscape:connector-curvature="0"
         id="path4225"
         d="m 184.85742,145.47461 0,86.35156 49.12696,0 243.74609,0 25.4707,0 60.88281,0 0,93.41797 -149.15429,0 -145.22852,0 0,-0.19141 -86.87305,0 -0.0742,42.97461 c -0.0929,53.51655 -0.0518,122.62444 0.084,144.20313 l 0,79.13672 6.79102,0 288.10156,0 19.4082,0 117.41211,0 33.9668,0 0,-87.13867 -50.73828,0 -100.64063,0 -19.4082,0 -208.0293,0 0,-92.63282 145.22852,0 182.44531,0 0,-0.67968 53.06055,0 0,-42.10352 0,-136.98633 0.10351,0 0,-86.35156 -11.8789,0 -135.45899,0 -25.4707,0 -261.12891,0 -31.74414,0 z"
         style="fill:#ff0000" />
      <path
         inkscape:connector-curvature="0"
         id="path4177"
         d="m 25.558594,504.22852 0,43.56836 0,43.57031 134.044926,0 0,-87.13867 -134.044926,0 z"
         style="fill:#000000" />
      <path
         inkscape:connector-curvature="0"
         id="path4230"
         d="m 669.27539,326.0293 0,42.7832 0,42.7832 24.29102,0 c 22.81105,0 24.35506,0.0906 25.31836,1.46485 0.56419,0.80488 8.09654,9.37178 16.73828,19.03711 19.95445,22.3177 22.35937,25.10595 22.35937,25.90625 0,0.8411 -6.10978,7.97759 -24.95703,29.15039 l -15.19922,17.07422 -46.07422,0 0,87.13867 79.61914,0 22.79688,-22.96289 c 12.53835,-12.629 34.77949,-35.31943 49.42578,-50.42383 14.64622,-15.1044 34.3461,-35.37994 43.77734,-45.05664 l 17.14844,-17.59375 -4.19531,-4.16992 c -2.30718,-2.29307 -32.63187,-31.37118 -67.38867,-64.61914 l -63.19532,-60.45118 -40.23242,-0.0312 -40.23242,-0.0293 z"
         style="fill:#000000" />
      <path
         inkscape:connector-curvature="0"
         id="path4240"
         d="m 79.505859,145.47461 -29.132812,29.64648 c -16.0229,16.30613 -33.902022,34.58749 -39.732422,40.625 -5.8303996,6.03753 -22.434084,23.12802 -36.896484,37.97852 -14.4624,14.85049 -26.294922,27.28309 -26.294922,27.62695 0,0.6708 1.604928,2.2147 75.361328,72.52344 26.7692,25.51792 51.145569,48.75662 54.167969,51.64062 l 5.49414,5.24415 39.839844,0.0254 39.83984,0.0273 0,-42.78516 0,-42.7832 -23.47851,0 -23.47852,0 -9.77148,-10.40039 c -10.308501,-10.9741 -21.928286,-23.85226 -28.396486,-31.4707 -3.6591,-4.30979 -3.810494,-4.66616 -2.746094,-6.41797 0.62,-1.02028 9.871194,-11.59217 20.558594,-23.49219 l 19.431636,-21.63672 47.35352,0 0,-86.35156 -82.119141,0 z"
         style="fill:#000000" />
      <path
         inkscape:connector-curvature="0"
         id="path4165"
         d="m 372.53906,48.132812 0,75.898438 86.35156,0 0,-75.898438 -43.17578,0 -43.17578,0 z m 0,198.126958 0,57.0039 43.17578,0 43.17578,0 0,-57.0039 -86.35156,0 z"
         style="fill:#000000" />
      <path
         inkscape:connector-curvature="0"
         id="path4163"
         d="m 673.77148,145.47461 0,86.35156 125.81836,0 0,-43.17578 0,-43.17578 -125.81836,0 z"
         style="fill:#000000" />
      <path
         inkscape:connector-curvature="0"
         id="path4161"
         d="m 182.56317,85.027954 0,-36.89598 43.5686,0 43.5687,0 0,36.89598 0,36.895976 -43.5687,0 -43.5686,0 z"
         style="fill:#000000" />
      <path
         inkscape:connector-curvature="0"
         id="path4149"
         d="m 558.58807,85.027954 0,-36.89598 43.56869,0 43.56865,0 0,36.89598 0,36.895976 -43.56865,0 -43.56869,0 z"
         style="fill:#000000" />
    </g>
  </g>
</svg>
